<?xml version="1.0" encoding="utf-8"?>
<!-- Generator: Adobe Illustrator 27.8.0, SVG Export Plug-In . SVG Version: 6.00 Build 0)  -->
<svg version="1.1" id="Layer_1" xmlns="http://www.w3.org/2000/svg" xmlns:xlink="http://www.w3.org/1999/xlink" x="0px" y="0px"
	 viewBox="0 0 220 45" style="enable-background:new 0 0 220 45;" xml:space="preserve">
<style type="text/css">
	.st0{fill:#010000;}
</style>
<g>
	<g>
		<path class="st0" d="M33.7,0.5h6.5v0.2c-2,0.3-3.1,2.7-4.5,7.5l-6.4,21H29L22.5,9.4l-7.2,19.9H15L7.6,5.4C6.6,2.3,5.7,0.9,4,0.7
			V0.5h10v0.2c-2.2,0.2-2.9,1.4-2.2,3.7L17.1,22l5-13.8l-0.9-2.8c-1-3.2-1.9-4.6-3.5-4.7V0.5h10v0.2c-2.2,0.2-3,1.4-2.3,3.7
			l5.5,17.1L34.9,8c1.4-4.7,1.4-7-1.3-7.3V0.5z"/>
		<path class="st0" d="M61.2,21.9l-0.9,6.9H40.3v-0.2c2.6,0,2.8-1.9,2.8-4.8V5.5c0-2.9-0.2-4.8-2.8-4.8V0.5h19.4l0.5,6.1H60
			c-2.1-4.5-3.6-5.5-7.9-5.5h-4.6v12.6H51c3.6,0,4.5-1,5.3-3.8h0.2v8.6h-0.2c-0.8-2.9-1.7-4.2-5.3-4.2h-3.5v12
			c0,1.2,0.3,1.8,1.6,1.8h3.6c4,0,5.8-0.9,8.3-6.3H61.2z"/>
		<path class="st0" d="M78.4,0.5h6.5v0.2c-2,0.2-3.8,3.1-5.9,7.5l-3.9,8v7.5c0,2.9,0.2,4.8,2.8,4.8v0.2h-10v-0.2
			c2.6,0,2.8-1.9,2.8-4.8V17L65.1,5.4c-1.6-3.3-2.4-4.6-3.5-4.7V0.5h10v0.2c-2.2,0.2-3.1,1.6-2.1,3.7l5.2,11L78.3,8
			c2-4.2,2.7-7,0.1-7.3V0.5z"/>
		<path class="st0" d="M98.7,13.9c4,0.3,8.2,2.9,8.2,7.6c0,3.8-3.1,7.2-10.6,7.2H84.9v-0.2c2.6,0,2.8-1.9,2.8-4.8V5.5
			c0-2.9-0.2-4.8-2.8-4.8V0.5h10.9c6.7,0,9.6,2.8,9.6,6.6C105.4,11.4,102,13.3,98.7,13.9L98.7,13.9z M93.5,1.1
			c-0.9,0-1.5,0.5-1.5,1.4v11.2h2.9c4.3,0,6-2.7,6-6c0-4-2-6.6-6.1-6.6H93.5z M102.1,21.3c0-4.1-2.6-7-7.1-7h-3v11.3
			c0,0.8,0,2.5,3.1,2.5C99.5,28.1,102.1,25.6,102.1,21.3z"/>
		<path class="st0" d="M131.1,28.5v0.2c-0.6,0.1-2.6,0.2-3.7,0.2c-2.8,0-3.5-1.2-8.3-11.8c-0.7-1.4-1.3-1.7-2.6-1.7h-1.6v8.3
			c0,2.9,0.2,4.8,2.8,4.8v0.2h-10v-0.2c2.6,0,2.8-1.9,2.8-4.8V5.5c0-2.9-0.2-4.8-2.8-4.8V0.5h10.5c6.2,0,9.6,2.9,9.6,7.4
			c0,3.8-2.8,6.2-6.3,7.2v0.1c1.1,0.7,2.1,2.2,3,4C128.5,26.6,129.2,27.9,131.1,28.5z M114.9,14.8h2.6c3.8,0,5.8-2.4,5.8-6.6
			c0-4.1-1.8-7.1-5.8-7.1h-1.2c-0.9,0-1.5,0.5-1.5,1.4V14.8z"/>
		<path class="st0" d="M131,28.8v-0.2c2.6,0,2.8-1.9,2.8-4.8V5.5c0-2.9-0.2-4.8-2.8-4.8V0.5h10v0.2c-2.6,0-2.8,1.9-2.8,4.8v18.2
			c0,2.9,0.2,4.8,2.8,4.8v0.2H131z"/>
		<path class="st0" d="M142.3,28.8v-0.2c2.6,0,2.8-1.9,2.8-4.8V5.5c0-2.9-0.2-4.8-2.8-4.8V0.5H154c8.8,0,13.9,4.9,13.9,13.8
			c0,9-5.6,14.5-14.2,14.5H142.3z M163.1,14.5c0-7.5-2.6-13.4-9.5-13.4H151c-0.9,0-1.5,0.5-1.5,1.4v23.2c0,1.7,0.9,2.5,4.4,2.5
			C160.6,28.1,163.1,22.7,163.1,14.5z"/>
		<path class="st0" d="M170.1,14.7C170.1,6,175.7,0,183.4,0c4.2,0,7.1,1,9,1.9v5.3h-0.2c-2.1-4.4-4.6-6.7-8.8-6.7
			c-5.2,0-8.4,6-8.4,14.1c0,7.9,2.9,14,8.5,14c3.1,0,5.2-1.4,5.2-3.7v-4.3c0-2.9-0.2-4.4-2.4-4.5v-0.2h8v0.2
			c-1.2,0.2-1.2,1.7-1.2,4.5v5.7c-2.2,1.5-5.6,2.8-9.7,2.8C175.1,29.2,170.1,23.3,170.1,14.7z"/>
		<path class="st0" d="M216,21.9l-0.9,6.9h-19.9v-0.2c2.6,0,2.8-1.9,2.8-4.8V5.5c0-2.9-0.2-4.8-2.8-4.8V0.5h19.4l0.5,6.1h-0.2
			c-2.1-4.5-3.6-5.5-7.9-5.5h-4.6v12.6h3.5c3.6,0,4.5-1,5.3-3.8h0.2v8.6h-0.2c-0.8-2.9-1.7-4.2-5.3-4.2h-3.5v12
			c0,1.2,0.4,1.8,1.6,1.8h3.6c4,0,5.8-0.9,8.3-6.3H216z"/>
	</g>
	<g>
		<path class="st0" d="M39.3,44.8l-3.2-8.9H38l1.4,4.1c0.4,1.2,0.7,2.2,1,3.3h0c0.3-1,0.6-2.1,1-3.2l1.5-4.1h1.8l-3.4,8.9H39.3z"/>
		<path class="st0" d="M62.9,40.9h-3.8v2.5h4.2v1.4h-5.9v-8.9h5.7v1.4h-4v2.2h3.8V40.9z"/>
		<path class="st0" d="M76.6,44.8v-8.9h2l2.6,3.8c0.7,1,1.2,2,1.7,3l0,0c-0.1-1.2-0.1-2.3-0.1-3.6v-3.3h1.6v8.9h-1.8l-2.6-4
			c-0.6-1-1.3-2.1-1.8-3.2l0,0c0.1,1.2,0.1,2.4,0.1,3.7v3.4H76.6z"/>
		<path class="st0" d="M100,37.3h-2.9v-1.4h7.5v1.4h-2.9v7.5H100V37.3z"/>
		<path class="st0" d="M119.1,35.9v5c0,1.8,0.8,2.8,2.1,2.8c1.4,0,2.2-0.9,2.2-2.8v-5h1.7v4.9c0,2.9-1.6,4.2-3.9,4.2
			c-2.2,0-3.7-1.2-3.7-4.2v-4.9H119.1z"/>
		<path class="st0" d="M138.7,36c0.7-0.1,1.7-0.2,2.7-0.2c1.4,0,2.3,0.2,2.9,0.7c0.5,0.4,0.8,1,0.8,1.8c0,1.2-0.9,2-1.7,2.2v0
			c0.7,0.3,1,0.9,1.3,1.7c0.3,1.1,0.6,2.2,0.8,2.5h-1.7c-0.1-0.3-0.4-0.9-0.6-2.1c-0.3-1.2-0.7-1.5-1.7-1.6h-1v3.7h-1.7V36z
			 M140.4,40h1.2c1.2,0,1.9-0.6,1.9-1.4c0-1-0.8-1.4-1.9-1.4c-0.6,0-1,0-1.2,0.1V40z"/>
		<path class="st0" d="M164,40.9h-3.8v2.5h4.2v1.4h-5.9v-8.9h5.7v1.4h-4v2.2h3.8V40.9z"/>
		<path class="st0" d="M177.9,43c0.6,0.3,1.5,0.6,2.4,0.6c1.1,0,1.7-0.5,1.7-1.2c0-0.7-0.5-1.1-1.7-1.4c-1.6-0.5-2.7-1.2-2.7-2.6
			c0-1.5,1.3-2.6,3.3-2.6c1.1,0,1.9,0.2,2.4,0.5l-0.4,1.3c-0.3-0.2-1.1-0.5-2-0.5c-1.1,0-1.6,0.6-1.6,1.1c0,0.7,0.6,1,1.9,1.4
			c1.7,0.5,2.5,1.3,2.5,2.7c0,1.4-1.1,2.7-3.6,2.7c-1,0-2.1-0.3-2.7-0.6L177.9,43z"/>
	</g>
</g>
</svg>
