<svg xmlns="http://www.w3.org/2000/svg" version="1.1" xmlns:xlink="http://www.w3.org/1999/xlink" xmlns:svgjs="http://svgjs.dev/svgjs" width="768" height="768"><svg version="1.1" id="SvgjsSvg1042" xmlns="http://www.w3.org/2000/svg" xmlns:xlink="http://www.w3.org/1999/xlink" x="0px" y="0px" viewBox="0 0 768 768" style="enable-background:new 0 0 768 768;" xml:space="preserve">
<path d="M627.3,79.3h-93.2h-238h-58.9H0v4.9c34.4,3.3,54,33.5,74.4,99.8l159.5,504.6h6.5L391,254.4l141.5,434.3h6.5l131.7-439.2
	C700.9,148.9,729.6,94.9,768,84.2v-4.9H627.3z M293.6,490.7L192.2,161.9c-13.9-45.8,0.8-74.4,45-77.7h58.9
	c31.9,3.3,50.7,33.5,72,99.8l14.7,46.6L293.6,490.7z M655.1,244.5l-68.7,232.3L485.8,161.9c-14.7-46.6,0-74.4,48.3-77.7h93.2
	C683.8,94.9,684.6,145.6,655.1,244.5z"></path>
</svg><style>@media (prefers-color-scheme: light) { :root { filter: none; } }
@media (prefers-color-scheme: dark) { :root { filter: invert(100%); } }
</style></svg>