<?xml version="1.0" encoding="utf-8"?>
<!-- Generator: Adobe Illustrator 27.8.0, SVG Export Plug-In . SVG Version: 6.00 Build 0)  -->
<svg version="1.1" id="Layer_1" xmlns="http://www.w3.org/2000/svg" xmlns:xlink="http://www.w3.org/1999/xlink" x="0px" y="0px"
	 viewBox="0 0 280 43.8" style="enable-background:new 0 0 280 43.8;" xml:space="preserve">
<style type="text/css">
	.st0{fill:none;stroke:#000000;stroke-width:6;stroke-linecap:round;stroke-miterlimit:10;}
</style>
<path class="st0" d="M31.3,39.8c-1.6,0.7-3.3,1-5.1,1s-3.6-0.4-5.1-1s-3.1-1.7-4.4-2.9c-1.2-1.2-2.2-2.7-2.9-4.4
	c-0.7-1.6-1-3.3-1-5.1s0.4-3.6,1-5.1s1.7-3.1,2.9-4.4c1.2-1.2,2.7-2.2,4.4-2.9s3.3-1,5.1-1s3.6,0.4,5.1,1s3.1,1.7,4.4,2.9
	s2.2,2.7,2.9,4.4s1,3.3,1,5.1l0,0v13.4"/>
<path class="st0" d="M128.4,27.4c0,1.8-0.4,3.6-1,5.2c-0.7,1.6-1.7,3.1-2.9,4.4s-2.7,2.2-4.4,2.9s-3.3,1-5.2,1s-3.6-0.4-5.2-1
	s-3.1-1.7-4.4-2.9s-2.2-2.7-2.9-4.4s-1-3.3-1-5.1s0.4-3.6,1-5.1s1.7-3.1,2.9-4.4s2.7-2.2,4.4-2.9s3.3-1,5.2-1s3.6,0.4,5.2,1
	s3.1,1.7,4.4,2.9s2.2,2.7,2.9,4.4C128,23.9,128.4,25.5,128.4,27.4z"/>
<path class="st0" d="M71.8,13.9v16.2c0,1.4-0.3,2.8-0.8,4.1c-0.5,1.2-1.3,2.5-2.3,3.5s-2.2,1.8-3.4,2.3c-1.3,0.5-2.6,0.8-4.1,0.8
	s-2.8-0.3-4.1-0.8s-2.5-1.3-3.5-2.3s-1.8-2.2-2.3-3.5s-0.8-2.6-0.8-4.1V13.9"/>
<line class="st0" x1="94.5" y1="13.9" x2="71.8" y2="13.9"/>
<path class="st0" d="M94.5,40.8c-1.4,0-2.8-0.3-4.1-0.8s-2.5-1.3-3.4-2.3s-1.8-2.2-2.3-3.5s-0.8-2.6-0.8-4.1V5.7"/>
<line class="st0" x1="140.4" y1="3.1" x2="140.4" y2="40.8"/>
<line class="st0" x1="157.4" y1="40.8" x2="140.4" y2="40.8"/>
<line class="st0" x1="224.8" y1="3" x2="197.8" y2="35.3"/>
<line class="st0" x1="224.8" y1="3" x2="224.8" y2="40.8"/>
<line class="st0" x1="167.4" y1="3" x2="167.4" y2="40.8"/>
<line class="st0" x1="184.4" y1="3" x2="167.4" y2="3"/>
<line class="st0" x1="184.4" y1="21.9" x2="167.4" y2="21.9"/>
<path class="st0" d="M197.8,35.3c-1.7,1.7-3.8,3.1-6.1,4.1s-4.7,1.4-7.2,1.4h-17"/>
<line class="st0" x1="236.5" y1="3" x2="236.5" y2="40.7"/>
<path class="st0" d="M236.5,3h12l0,0c2.6,0,5,0.5,7.2,1.4c2.2,0.9,4.4,2.4,6.1,4.1s3.1,3.8,4.1,6.1s1.4,4.7,1.4,7.2s-0.5,5-1.4,7.2
	s-2.4,4.4-4.1,6.1c-1.7,1.7-3.8,3.1-6.1,4.1c-2.3,1-4.7,1.4-7.2,1.4h0.2h-12"/>
</svg>
