<svg xmlns="http://www.w3.org/2000/svg" xml:space="preserve" style="enable-background:new 0 0 1170.6 210" viewBox="0 0 1170.6 210"><path d="M76 56.9C33.4 56.9 1.3 89 1.3 131.6s33 74.7 74.7 74.7c9.9 0 19.5-1.7 27.4-4.8 5.3-2.2 9-7.3 9-13.5 0-8.2-6.5-14.7-14.7-14.7-2.3 0-3.7.3-5.6 1.1-4.2 1.7-9.6 3.1-16.1 3.1-24.5 0-43.4-20-43.4-46s18.9-46 43.4-46 43.4 20 43.4 46v58.6c0 8.7 7 15.8 15.5 15.8s15.5-7 15.5-15.8v-58.6c.1-43-31.8-74.6-74.4-74.6zM384.2 88.5c7.9 0 14.4-6.2 14.4-14.4s-6.5-14.4-14.4-14.4h-33V38.6c0-8.7-6.8-15.5-15.5-15.5s-15.5 6.8-15.5 15.5v21.2h-41.8c-2 0-3.9.4-5.7 1.1-5.7 2.3-9.5 7.8-9.5 14.4v66.2c0 23.7-14.4 36.1-32.4 36.1s-32.4-12.4-32.4-36.1V72.7c0-8.7-6.8-15.5-15.5-15.5s-15.5 6.8-15.5 15.5v67.7c0 40.3 27.9 66 63.4 66s63.4-25.7 63.4-66V88.5h26v51c0 40.9 27.6 66.5 64 66.5 7.9 0 14.4-6.8 14.4-14.7s-6.5-14.4-14.4-14.4c-19.2 0-33-12.7-33-37.5v-51h33zM479.5 56.9c-42.8 0-74.7 33-74.7 74.7s31.6 74.7 74.7 74.7 74.7-33 74.7-74.7-31.9-74.7-74.7-74.7zm0 120.7c-24.8 0-43.4-20.6-43.4-46s18.6-46 43.4-46 43.4 20.6 43.4 46c0 25.1-18.6 46-43.4 46zM674.6 175.1h-61.7V17.2C612.9 7.6 605 0 595.6 0s-17.2 7.6-17.2 17.2V190c0 9.4 7.9 17.2 17.2 17.2h78.9c8.8 0 15.8-7 15.8-16.1s-7-16-15.7-16zM1061.7 2.6h-54.4c-9.4 0-17.2 7.6-17.2 17v173c0 9.4 7.9 17.2 17.2 17.2s17.2-7.9 17.2-17.2V34.5h37.1c42.7 0 69.6 31.6 69.6 70.5s-26.6 70.1-68.7 70.1H1050c-9.1 0-16.1 7.3-16.1 16.1s7 16.1 16.1 16.1h12c62 0 104.7-45.3 104.7-102.3s-42.4-102.4-105-102.4zM959.9 0c-4.7 0-9.7 1.8-14.1 6.7l-141 168.4h-70.9v-54.4h61.7c8.8 0 15.8-7 15.8-15.8s-7-16.1-15.8-16.1h-61.7V34.5h61.7c8.8 0 15.8-7 15.8-16.1s-7-15.8-15.8-15.8h-78.9c-9.3 0-17.2 7.6-17.2 17V190c0 9.3 7.9 17.2 17.2 17.2h96.2c4.8 0 9-2.2 11.9-5.6L942.6 60.8v70.3h-39.8c-9.1 0-16.1 7.3-16.1 16.1s7 16.1 16.1 16.1h39.8v29.4c0 9.3 7.6 17.2 17.2 17.2s17-7.9 17-17.2V17.2c0-9.6-7.6-17.2-16.9-17.2z"/></svg>