<?xml version="1.0" encoding="UTF-8"?><svg id="Layer_1" xmlns="http://www.w3.org/2000/svg" viewBox="0 0 1933.47 211.42"><path d="m0,211.42V0h103.64c44.22,0,77.48,8.84,99.79,26.5,22.31,17.67,33.46,44.07,33.46,79.21,0,22.11-5.14,41.06-15.4,56.85-10.27,15.8-25.42,27.89-45.45,36.27-20.04,8.39-44.37,12.58-72.99,12.58H0Zm104.53-59.52c18.55,0,32.32-3.85,41.31-11.55,8.98-7.7,13.47-19.44,13.47-35.24s-4.44-26.84-13.33-34.35c-8.88-7.5-22.41-11.25-40.57-11.25h-30.2v92.39h29.32Z"/><path d="m391.23,211.42l-39.38-64.55h-36.42v64.55h-71.07V0h112.23c66.52,0,99.79,24.18,99.79,72.55,0,14.41-2.81,26.46-8.44,36.13-5.63,9.67-14.66,17.57-27.09,23.69l51.52,79.06h-81.13Zm-39.09-117.56c11.84,0,20.14-1.58,24.87-4.74,4.74-3.16,7.11-8.49,7.11-15.99s-2.37-12.48-7.11-15.55c-4.74-3.06-12.83-4.59-24.28-4.59h-37.31v40.86h36.72Z"/><path d="m478.31,211.42V0h76.4v211.42h-76.4Z"/><path d="m641.62,211.42L560.49,0h83.21l45.31,139.47L734.6,0h81.43l-81.43,211.42h-92.98Z"/><path d="m821.83,211.42V0h191.29v54.19h-116.67v23.69h110.75v53.89h-110.75v25.47h124.07l-6.22,54.19h-192.47Z"/><path d="m1030.03,211.42V0h76.4v150.13h113.71l-7.11,61.3h-183Z"/><path d="m1227.92,211.42V0h191.29v54.19h-116.67v23.69h110.75v53.89h-110.75v25.47h124.07l-6.22,54.19h-192.47Z"/><path d="m1612.01,211.42l-11.25-31.09h-88.54l-10.96,31.09h-76.99L1511.93,0h91.2l87.65,211.42h-78.77Zm-55.37-154.57l-24.58,67.51h48.86l-24.28-67.51Z"/><path d="m1696.58,211.42V0h103.64c44.22,0,77.48,8.84,99.79,26.5,22.31,17.67,33.46,44.07,33.46,79.21,0,22.11-5.14,41.06-15.4,56.85-10.27,15.8-25.42,27.89-45.45,36.27-20.04,8.39-44.37,12.58-72.99,12.58h-103.05Zm104.53-59.52c18.55,0,32.32-3.85,41.31-11.55,8.98-7.7,13.47-19.44,13.47-35.24s-4.44-26.84-13.33-34.35c-8.88-7.5-22.41-11.25-40.57-11.25h-30.2v92.39h29.31Z"/></svg>