<svg xmlns="http://www.w3.org/2000/svg" xml:space="preserve" style="enable-background:new 0 0 280 45" viewBox="0 0 280 45"><path d="M30.1 0c-2 0-3.5 1.5-3.5 3.5v24.7c0 5.8-4.3 10.3-9.8 10.3C11.4 38.5 7 34 7 28.2c0-5.7 4.3-10.3 9.8-10.3 1.5 0 2.7.3 3.6.7.4.2.8.3 1.3.3 1.8 0 3.3-1.5 3.3-3.3 0-1.4-.8-2.5-2-3-1.8-.7-3.9-1.1-6.2-1.1C7.4 11.4 0 18.5 0 28.2 0 37.6 7.2 45 16.8 45c9.4 0 16.8-7.1 16.8-16.8V3.5c0-2-1.6-3.5-3.5-3.5zM54 11.4c-8.3 0-14.3 5.8-14.3 14.9v15.2c0 2 1.5 3.6 3.5 3.6s3.5-1.6 3.5-3.6V26.2c0-5.6 3.1-8.4 7.3-8.4 1.8 0 3.2-1.5 3.2-3.2.1-1.8-1.4-3.2-3.2-3.2z"/><circle cx="65.8" cy="4.1" r="4.1"/><path d="M65.8 11.4c-2 0-3.5 1.5-3.5 3.5v26.5c0 2 1.5 3.6 3.5 3.6s3.5-1.6 3.5-3.6V14.9c0-2-1.6-3.5-3.5-3.5zM102.6 11.4c-1 0-1.7.4-2.4 1.1L83.4 32.6V14.9c0-2-1.5-3.5-3.5-3.5s-3.5 1.5-3.5 3.5v26.5c0 2 1.5 3.6 3.5 3.6 1.1 0 1.8-.3 2.6-1.2l22.7-27c.5-.6.8-1.4.8-2.1-.1-1.9-1.6-3.3-3.4-3.3zM134 34.1c-1.3 0-2 .8-3 1.6-1.5 1.6-3.7 2.9-6.7 2.9-5.5 0-9.8-4.6-9.8-10.3 0-5.8 4.3-10.3 9.8-10.3 1.4 0 3.1.4 4.2 1.1l-7.7 9c-.6.6-.8 1.3-.8 2.1 0 1.8 1.4 3.2 3.3 3.2 1 0 1.7-.3 2.4-1.1l9.8-11.6c.8-.9 1-1.7 1-2.5 0-1-.5-2-1.3-2.7-2.2-2-6-3.9-11-3.9-9.6 0-16.8 7.4-16.8 16.8S114.6 45 124.2 45c5.4 0 9.8-2.3 12.2-5.3.6-.7 1-1.6 1-2.3 0-1.9-1.4-3.3-3.4-3.3zM163.8 38h-13.4V3.7c0-2.1-1.7-3.7-3.7-3.7S143 1.7 143 3.7v37.5c0 2 1.7 3.7 3.7 3.7h17.1c1.9 0 3.4-1.6 3.4-3.5.1-1.9-1.5-3.4-3.4-3.4zM257.2.6h-11.8c-2 0-3.7 1.7-3.7 3.7v37c0 2 1.7 3.7 3.7 3.7h11.7c13.6 0 22.8-9.8 22.8-22.2S270.8.6 257.2.6zm0 37.4h-8.1V7.5h8.1c9.3 0 15.1 6.8 15.1 15.3S266.5 38 257.2 38zM232.1.5c-1 0-2.1.4-2.8 1.2l-27 32.2c-2.2 2.6-5.3 4-8.7 4H178.7V26.2h13.4c1.9 0 3.4-1.5 3.4-3.4 0-2-1.5-3.5-3.4-3.5h-13.4V7.5h13.4c1.9 0 3.4-1.5 3.4-3.5 0-1.9-1.5-3.4-3.4-3.4H175c-2 0-3.7 1.7-3.7 3.7v37c0 2 1.7 3.7 3.7 3.7h18.6c5.4 0 10.5-2.4 14-6.5l20.9-25v28c0 1.9 1.6 3.5 3.5 3.5s3.5-1.6 3.5-3.5V4c.1-1.9-1.5-3.5-3.4-3.5z"/></svg>