<svg xmlns="http://www.w3.org/2000/svg" xml:space="preserve" style="enable-background:new 0 0 528 100" viewBox="0 0 528 100"><path d="M84.4 71.4 82.7 70 .1 0c-.2 4.3 0 8.7.5 12.9l38.2 30.5-37-22.8c.8 4 2 7.8 3.4 11.6l27 17.9-23-9.4-.1.4c6 11.6 14.8 21.8 25.9 29.5-4 .2-7.9 1.3-11.4 3.3-.1 0-.1-.1-.1-.1-3.7-3.1-7.3-6.8-10.5-10.3-.2-.2-.3-.4-.5-.6-2.3-2.9-4.5-5.8-6.3-8.3-.1-.2-.3-.4-.4-.5v.1l-.1-.1c0 .1.1.2.1.3C8 80 29.4 100 55.4 100c9.9 0 19.2-2.9 26.9-7.9-2.4-1.5-6.1-3.3-11.8-5.2-4.4 1.8-9.3 2.9-14.4 3h-.8c-5.6 0-11-1.2-15.9-3.3 15-14.1 38.6-13.4 52.8 1.5-.3-6.4-3.1-12.3-7.8-16.7zM58.9 43.6l3.1 2.6 13.7 11.7c-1.1-7.1 1.6-14.2 7-18.9L55.4 12.6c-1.3 2-2.2 4.2-2.9 6.3L71 37.2 51.6 23.7c-.6 7.2 1.9 14.6 7.3 19.9z"/><path d="M55.5.6C44.6.6 34.6 4.1 26.4 10l8 6.8c6.1-3.9 13.4-6.1 21.1-6.1 21.9 0 39.6 17.7 39.6 39.6 0 5.5-1.1 10.7-3.1 15.5 2.6 2.7 4.8 5.8 6.4 9.1.1.1.1.2.1.3 4.2-7.3 6.7-15.8 6.7-24.9C105.2 22.8 83 .6 55.5.6zM130 81.7h13V57.1h22.8V45.6H143V33.4h26.7V21.8H130v59.9zM203.8 44.1h-.4c-1.3-5-6.3-8.6-12.1-8.6-11.4 0-17.4 8.2-17.4 23.5s5.9 23.6 17.4 23.6c5.9 0 10.8-3.7 12.1-8.6h.4v7.6h12.7V36.5h-12.7v7.6zm0 21.7c0 4.1-3.5 6.6-8.3 6.6s-8.3-3.7-8.3-9.3v-7.8c0-5.6 3.5-9.3 8.3-9.3 4.8 0 8.3 2.5 8.3 6.6v13.2zM239.3 18.2h-12.7v51.2c0 8 4 12.4 12.6 12.4h5.8v-9.9h-5.6V18.2zM269 72.7c-5.2 0-7.8-3.6-7.8-9.3V55c0-5.6 2.6-9.3 7.8-9.3 4.5 0 7 2.7 7.7 6.2l10.3-4.5c-2.6-7.4-8.9-11.8-18.1-11.8-13.6 0-21 9.1-21 23.5s7.5 23.6 21 23.6c8.8 0 15.3-3.9 18.3-12.5l-9.9-4.3c-1.2 3.7-3.2 6.8-8.3 6.8zM311.8 35.6c-13.2 0-21.1 9-21.1 23.5s7.9 23.6 21.1 23.6 21.1-9.1 21.1-23.6-7.8-23.5-21.1-23.5zm7.9 28.1c0 5.6-2.9 8.9-7.9 8.9s-7.9-3.3-7.9-8.9v-9.2c0-5.6 2.9-8.9 7.9-8.9s7.9 3.3 7.9 8.9v9.2zM365.9 35.6c-7.1 0-10.9 4-12.5 8.7h-.5v-7.7h-12.7v45.1h12.7V52.5c0-4.5 4-6.6 8.1-6.6 4.6 0 6.3 2.9 6.3 8.6v27.2H380V53.5c0-11.4-4.9-17.9-14.1-17.9zM414.3 45.5l-5.9-1c-5-.8-7.1-2.3-7.1-6.4 0-3.6 2.9-5.9 8.7-5.9 6.2 0 10 2.3 12.9 5.6l8.7-8.8c-4.9-5.4-11.8-8.4-20.8-8.4-14.1 0-22.5 7.5-22.5 18.2 0 10 5.8 16.2 18.4 17.8l5.9.8c5.6.8 7 3.2 7 6.4 0 4.4-3.1 7.2-9.4 7.2-5.9 0-11-2.3-15-6.9l-8.6 8.7c5.2 5.6 12.3 9.7 22.8 9.7 14.9 0 23.3-8 23.3-19.5-.2-10.1-6.1-15.6-18.4-17.5zM446.5 17.4c-5.2 0-7.4 2.6-7.4 6.3v1.9c0 3.6 2.2 6.3 7.4 6.3s7.4-2.6 7.4-6.3v-1.9c0-3.7-2.2-6.3-7.4-6.3zM440.2 36.6h12.7v45.1h-12.7V36.6zM514.4 35.6c-6.9 0-12.1 4-13.7 9.1h-.3c-2-5.9-6.4-9.1-12.6-9.1-6.7 0-10.5 3.9-12.1 8.7h-.5v-7.7h-12.7v45.1h12.7V52.5c0-4.5 3.8-6.6 7.5-6.6 4.1 0 6.2 2.7 6.2 8.6v27.2h12.7V52.5c0-4.5 3.7-6.6 7.5-6.6 4.2 0 6.2 2.7 6.2 8.6v27.2H528V53.5c-.1-11.4-4.9-17.9-13.6-17.9z"/></svg>