<?xml version="1.0" encoding="utf-8"?>
<!-- Generator: Adobe Illustrator 27.8.0, SVG Export Plug-In . SVG Version: 6.00 Build 0)  -->
<svg version="1.1" id="Layer_1" xmlns="http://www.w3.org/2000/svg" xmlns:xlink="http://www.w3.org/1999/xlink" x="0px" y="0px"
	 viewBox="0 0 280 44.1" style="enable-background:new 0 0 280 44.1;" xml:space="preserve">
<style type="text/css">
	.st0{fill:none;stroke:#000000;stroke-width:6;stroke-linecap:round;stroke-miterlimit:10;}
</style>
<line class="st0" x1="98.2" y1="14.3" x2="82.5" y2="14.3"/>
<path class="st0" d="M98.2,41.2c-1.4,0-2.8-0.3-4.1-0.8s-2.5-1.3-3.5-2.3s-1.8-2.2-2.3-3.5c-0.5-1.3-0.8-2.6-0.8-4.1V6.1"/>
<line class="st0" x1="58.5" y1="14.3" x2="42.9" y2="14.3"/>
<path class="st0" d="M58.5,3.4c-1.4,0-2.8,0.3-4.1,0.8S52,5.5,51,6.5s-1.8,2.2-2.3,3.5s-0.8,2.6-0.8,4.1v27.2"/>
<line class="st0" x1="70.5" y1="14.3" x2="70.5" y2="41.2"/>
<line class="st0" x1="110.2" y1="3.5" x2="110.2" y2="41.2"/>
<line class="st0" x1="127.2" y1="41.2" x2="110.2" y2="41.2"/>
<line class="st0" x1="194.6" y1="3.4" x2="167.6" y2="35.7"/>
<line class="st0" x1="194.6" y1="3.4" x2="194.6" y2="41.1"/>
<line class="st0" x1="137.2" y1="3.4" x2="137.2" y2="41.1"/>
<line class="st0" x1="154.2" y1="3.4" x2="137.2" y2="3.4"/>
<line class="st0" x1="154.2" y1="22.3" x2="137.2" y2="22.3"/>
<path class="st0" d="M167.6,35.7c-1.7,1.7-3.8,3.1-6.1,4.1c-2.3,1-4.7,1.4-7.2,1.4h-17"/>
<line class="st0" x1="206.3" y1="3.5" x2="206.3" y2="41.2"/>
<path class="st0" d="M206.3,3.5h12l0,0c2.6,0,5,0.5,7.2,1.4c2.2,0.9,4.4,2.4,6.1,4.1s3.1,3.8,4.1,6.1c0.9,2.3,1.4,4.7,1.4,7.2
	s-0.5,5-1.4,7.2c-0.9,2.2-2.4,4.4-4.1,6.1c-1.7,1.7-3.8,3.1-6.1,4.1s-4.7,1.4-7.2,1.4h0.2h-12"/>
<circle class="st0" cx="70.5" cy="4.1" r="1.1"/>
</svg>
