<svg xmlns="http://www.w3.org/2000/svg" xml:space="preserve" style="enable-background:new 0 0 430 100" viewBox="0 0 430 100"><path d="M123 43.8c-.7-5.8-8.2-10.9-14.4-12.2-.9.2-2.7.7-4.2 1.1-1.6-.9-3.3-1.3-5.5-1.3-4.8 2.6-8.7 7-11.5 12.6.8-6.3.9-12.7.2-18.8C85.7 9.8 72.4-.4 61.8 0c1.6 4.4 2.4 8.9 2.9 13.3 2.9 24-3.8 53.1-17.5 61.5.7-9.8 9.1-22.4 8.2-30-.9-8.2-9.5-11.8-16.2-11.1-.2 1.8-.9 4-1.3 6.4-1.3 6.7-3.8 15.5-4.2 24.9-3.5 7.1-8.2 12.9-12 15.3 1.1-19.1 8-34.4 14.9-49.3-2.4-9.3-13.1-16-20-15.1C6.3 31.5-.8 58.4 1.4 76.8c.2 2.4.7 4.9 1.3 7.1 2 6.9 13.3 14.9 19.7 15.8 4.7-.4 9.5-9.5 12.6-20 3.5 10.2 13.1 17.1 20.4 16.2 9.9-1.1 19.9-13.5 26.1-29.7-.1 2.9 0 5.8.3 8.6.2 1.8.4 3.1.9 4.2 1.6 4.7 8.7 11.3 15.5 11.8 12.2-1.3 22-14.9 21.1-22.6 0-1.3-.4-2.9-1.8-4-4.9 4.2-12.4 8.4-18.6 11.3.2-1.3.4-2.7.7-3.8 9.6-3.8 24.9-13.7 23.4-27.9zm-11.8 5.3c.7 7.3-2.4 10.9-10.2 16.9 2.2-6.3 5.6-11.6 10.2-16.9zM165.1 28.2c1.6 8.9 6.2 16.2 14 18.2-.7-15.5 6.7-27.3 8-32.4C185.8 7.6 176-.4 169.8 0c-1.8 2.9-3.1 6.7-3.8 9.8-2.4-3.1-5.3-5.3-8.2-5.3-8.7 5.3-20.6 20.9-18.9 36 1.8 14.7 16.4 22 26.6 25.8-2 1.6-5.5 2.9-9.3 3.3-6 .7-12.2-.9-16.4-4.4l-1.8-2.9c-2.7.4-7.3 9.3-6.4 17.5.2 1.8.7 3.3 1.3 4.9 4.9 6.2 14.2 6.9 21.3 6 15.1-1.8 26-12.4 24.6-23.5-1.6-13.1-22.2-18.4-22.6-23.5-.4-4.6 4.1-10.8 8.9-15.5zM378.8 40c-4.9 4.2-12.4 8.4-18.6 11.3.2-1.3.4-2.7.7-3.8 9.5-3.8 24.8-13.8 23.3-28-.7-5.8-8.2-10.9-14.4-12.2-.9.2-2.7.7-4.2 1.1-1.6-.7-3.3-1.1-5.5-1.3-6.3 3.4-11.1 10.2-14 18.3-2.7-7.6-11.6-13.5-15.7-13.1-4.2.4-10 15.3-13.5 27.7.7-5.5.7-10 .4-12.7-1.1-9.5-11.3-13.3-19.5-13.1-.4 12.4-2.1 24.7-3.8 35.5-2.7 2.3-6 4.9-9.1 6.7 1.6-6.4 5.1-18.4 4.2-25.5-1.1-9.5-11.1-13.5-19.7-13.1-.2 3.6-.4 7.8-.7 11.3-3.1-4.2-8-7.8-13.3-8.2-7.3 1.8-16.7 18.4-16.9 35-3.1 2.6-6.9 5.5-10.2 7.2 1.6-9.1 3.8-17.3 7.5-30.2-2.9-4-10.9-8.2-18.4-7.8-2.2.7-6.7 14.2-10.6 28.9 2.4-13.3 4-27.5 3.1-35.1-1.1-9.3-11.1-14.7-19.5-14.2 0 12.9-2.7 39.1-5.8 53.3-1.6 7.5-4.7 18.4-4.7 18.4 3.8 6 12.6 9.3 18.9 8.7 1.3-3.3 3.1-9.3 4.9-16.6 2-6.7 4.7-13.3 6.7-16.4-.7 6.7-.9 11.8-.4 15.3.9 8 7.5 15.8 16.6 14.4 6-.6 10.9-7.1 13.8-14.3 2.6 6.1 8.3 10.9 13.9 11.4 4-.4 8.4-14 10.9-22 0 1.6 0 2.9.2 4 .9 7.8 6.9 15.5 16.2 14.9 3.4-.4 6.4-2.6 8.9-5.7-2.1 10.6-4 17.3-5.3 21.5 3.1 5.8 13.3 9.1 19.1 8.4 2.9-4 7.3-22.9 10.2-40.6 2.4 6.4 8.2 11.3 14 10.9 6.6-3.4 11.7-11 14.9-19.3.2 1.7.4 2.9.9 4 1.6 4.7 8.7 11.3 15.5 11.8 12.2-1.3 22-14.9 21.1-22.6-.4-1.6-.8-3.1-2.1-4.2zm-6.2-14.9c.7 7.3-2.4 10.9-10.2 16.9 2-6.5 5.3-11.8 10.2-16.9zM265.9 46.4c-2 6.2-6.9 15.8-11.5 20.2 1.3-12.4 5.8-22.6 13.1-29.3-.3 2-1.2 6.5-1.6 9.1zm51.9 6.2-2.9.7.7-4.7c3.5-9.3 8.9-17.1 12.9-21.1-2.5 12-7 22.2-10.7 25.1zM399.6 48.6c-5.8-2-12.6 0-16.4 6.4-2.9 4.9.2 13.5 3.3 15.3 4.4-2.7 11.3-1.6 13.8-2.9.4-.4 1.1-1.1 1.8-2.2 2.4-4.6 2.6-12.6-2.5-16.6zM426 44.6c-4.7 2-11.3-.2-14 .9-.4.4-1.3 1.1-2 2-3.3 4-4.9 12-.2 16.6 5.1 2.9 12.4 2.2 17.1-3.8 3.8-4.6 1.8-13.4-.9-15.7z"/></svg>