<svg xmlns="http://www.w3.org/2000/svg" id="Layer_1" data-name="Layer 1" viewBox="0 0 904.71 548.59"><defs><style>.cls-1{stroke-width:0}</style></defs><path d="M87.14 201.96h111.45v45.63H35.53v-66.57l-11.22 7.85L0 155.21l35.53-23.56V5.24h51.61v83.03l37.55-26.55 24.91 32.54-62.46 43.01v64.7ZM261.99 236.74c-18.08-10.72-31.73-25.62-40.95-44.69-9.23-19.07-13.84-41.2-13.84-66.38 0-27.92 5.61-51.3 16.83-70.12 11.22-18.82 26.12-32.78 44.69-41.89C287.29 4.56 307.93.01 330.62.01c25.93 0 47.93 5.36 66.01 16.08 18.08 10.72 31.66 25.62 40.77 44.69 9.1 19.07 13.65 41.2 13.65 66.38 0 27.93-5.55 51.3-16.64 70.12-11.1 18.83-25.94 32.79-44.51 41.89-18.58 9.1-39.21 13.65-61.9 13.65-25.93 0-47.94-5.36-66.01-16.08Zm103.6-37.21c10.34-6.6 18.07-16.08 23.19-28.42 5.11-12.34 7.67-26.86 7.67-43.57 0-26.43-5.61-47.06-16.83-61.9-11.22-14.83-27.55-22.25-48.99-22.25s-39.52 7.29-51.24 21.88c-11.72 14.59-17.58 34.6-17.58 60.03s5.61 47.07 16.83 61.9c11.22 14.84 27.68 22.25 49.37 22.25 14.71 0 27.24-3.3 37.59-9.91ZM653.38 48.25H543.05v60.59h95.37l-6.08 42.64h-89.29v96.12h-51.61V5.24h161.94v43.01ZM904.71 5.24v242.35h-57.6l-76.19-112.95c-6.51-9.97-12.01-18.64-16.51-25.99-4.51-7.35-8.88-15.64-13.14-24.87v163.81h-51.61V5.24h56.85l82.95 124.17c1 1.5 3.25 4.93 6.75 10.29 3.5 5.36 6.69 10.41 9.57 15.15s5.32 9.35 7.32 13.84V5.24h51.61ZM200.17 306.24h51.61v242.35h-51.61V447.98H87.6v100.61H35.99V306.24H87.6v96.87h112.57v-96.87ZM361.35 505.2h112.2v43.38H309.74V306.23h161.94v43.01H361.35v54.6h95.37l-6.08 42.64h-89.29v58.72ZM527.54 548.59V306.24h51.61v242.35h-51.61ZM904.29 306.24v242.35h-51.61V397.87c-3.26 9.23-8.77 21.32-16.53 36.28l-42.09 84.52H753.1l-42.84-84.52c-7.77-15.21-13.28-27.3-16.53-36.28v150.72h-51.61V306.24h54.6l55.35 106.22a423.62 423.62 0 0 1 11.97 25.25c3.74 8.6 6.73 16.15 8.98 22.63 3.52-11.47 10.57-27.42 21.15-47.87l56.27-106.22h53.86Z" class="cls-1"/></svg>
